<svg xmlns="http://www.w3.org/2000/svg" viewBox="0 0 500 500"><g id="freepik--Floor--inject-13"><path d="M417.48,249.23c-93.1-53.76-243.56-53.76-336.06,0s-92,140.91,1.09,194.66,243.57,53.75,336.07,0S510.59,303,417.48,249.23Z" style="fill:#f5f5f5"></path></g><g id="freepik--Shadows--inject-13"><path d="M91.17,338.62,220.9,263.14a2.29,2.29,0,0,0,0-4l-45.67-26.55a2.32,2.32,0,0,0-2.31,0L42.05,308.76a2.3,2.3,0,0,0,0,4l44.53,25.87A4.58,4.58,0,0,0,91.17,338.62Z" style="fill:#e6e6e6"></path><path d="M95,355.65l81.88-47.3L242.27,346a43,43,0,0,1,11.65-9.49c23.31-13.46,61-13.46,84.14,0s23,35.28-.27,48.74a70,70,0,0,1-16,6.59l6.57,3.78a3,3,0,0,1,0,5.15l-76,43.86a11.87,11.87,0,0,1-11.87,0L95,360.8A3,3,0,0,1,95,355.65Z" style="fill:#e6e6e6"></path><path d="M427.31,393.49c-7.9-4.57-20.68-4.57-28.54,0s-7.81,12,.09,16.53,20.69,4.57,28.55,0S435.22,398.06,427.31,393.49Z" style="fill:#e6e6e6"></path></g><g id="freepik--Plant--inject-13"><path d="M432.24,367.22l-19.15.56-19.15-.56c-.82,12.93,1.7,26.11,5.18,32.54h0a8.71,8.71,0,0,0,3.79,3.86c5.65,3.26,14.78,3.26,20.39,0a8.47,8.47,0,0,0,3.79-4C430.56,393.19,433.06,380.08,432.24,367.22Z" style="fill:#fff"></path><path d="M426.58,359.38c7.51,4.33,7.54,11.35.09,15.68s-19.57,4.33-27.08,0-7.54-11.35-.08-15.68S419.08,355.05,426.58,359.38Z" style="fill:#ebebeb"></path><path d="M423.62,361.1c5.85,3.38,5.88,8.86.07,12.24s-15.28,3.38-21.13,0-5.88-8.86-.07-12.24S417.76,357.72,423.62,361.1Z" style="fill:#e0e0e0"></path><g style="opacity:0.15"><path d="M423.62,361.1c5.85,3.38,5.88,8.86.07,12.24s-15.28,3.38-21.13,0-5.88-8.86-.07-12.24S417.76,357.72,423.62,361.1Z"></path></g><path d="M444.57,285.52c-43.15,14.12-43.54,43-33.81,63.55,2.45,4.16,9.88,6.39,16.34-19.17l-11.34,1.45L429,324.66l3.43-10.26-11,.82,14-5.88A206.59,206.59,0,0,1,444.57,285.52Z" style="fill:#2158E8"></path><path d="M444.57,285.52c-43.15,14.12-43.54,43-33.81,63.55,2.45,4.16,9.88,6.39,16.34-19.17l-11.34,1.45L429,324.66l3.43-10.26-11,.82,14-5.88A206.59,206.59,0,0,1,444.57,285.52Z" style="opacity:0.2"></path><path d="M444.57,285.52c-43.15,14.12-43.54,43-33.81,63.55,2.45,4.16,9.88,6.39,16.34-19.17l-11.34,1.45L429,324.66l3.43-10.26-11,.82,14-5.88A206.59,206.59,0,0,1,444.57,285.52Z" style="fill:#fff;opacity:0.2"></path><path d="M432.37,292.73C409.61,310,407.56,329.8,414,350.47,411.71,332.27,409.25,313.87,432.37,292.73Z" style="fill:#fff"></path><path d="M371.49,314.84c42.53,6,47.69,32.81,42.05,53.57-1.6,4.28-8.14,7.59-18.41-15.14l10.8-.53-13.41-4-4.9-9L398,338.65l-14-3.15A195.67,195.67,0,0,0,371.49,314.84Z" style="fill:#2158E8"></path><path d="M371.49,314.84c42.53,6,47.69,32.81,42.05,53.57-1.6,4.28-8.14,7.59-18.41-15.14l10.8-.53-13.41-4-4.9-9L398,338.65l-14-3.15A195.67,195.67,0,0,0,371.49,314.84Z" style="fill:#fff;opacity:0.2"></path><path d="M371.49,314.84c42.53,6,47.69,32.81,42.05,53.57-1.6,4.28-8.14,7.59-18.41-15.14l10.8-.53-13.41-4-4.9-9L398,338.65l-14-3.15A195.67,195.67,0,0,0,371.49,314.84Z" style="opacity:0.1"></path><path d="M384.05,319.53c24.06,12.31,29.27,30.4,26.71,50.72C409.86,352.92,409.09,335.38,384.05,319.53Z" style="fill:#fff"></path><path d="M457,324.89c-39,.64-46.66,24.23-43.9,43.57,1,4,6.49,7.76,18.28-11.58l-9.67-1.69,12.54-2.14,5.42-7.54-9.24-2.13,13-1.27A178.26,178.26,0,0,1,457,324.89Z" style="fill:#2158E8"></path><path d="M445.17,327.71c-23.07,8.4-29.78,24.13-29.75,42.73C418.17,354.92,420.83,339.19,445.17,327.71Z" style="fill:#fff"></path><path d="M457,324.89c-39,.64-46.66,24.23-43.9,43.57,1,4,6.49,7.76,18.28-11.58l-9.67-1.69,12.54-2.14,5.42-7.54-9.24-2.13,13-1.27A178.26,178.26,0,0,1,457,324.89Z" style="fill:#fff;opacity:0.2"></path></g><g id="freepik--Windows--inject-13"><polygon points="341.48 30.29 335.14 26.67 334.75 165.19 334.76 165.2 385.85 194.37 385.87 187.11 386.24 55.84 341.48 30.29" style="fill:#f0f0f0"></polygon><polygon points="341.1 161.55 341.48 30.29 335.14 26.67 334.75 165.19 334.76 165.2 341.13 161.57 341.1 161.55" style="opacity:0.1"></polygon><polygon points="385.87 187.11 341.13 161.57 334.76 165.2 385.85 194.37 385.87 187.11" style="opacity:0.2"></polygon><polygon points="411.38 70.2 405.04 66.58 404.65 205.1 404.66 205.11 455.75 234.28 455.77 227.02 456.14 95.75 411.38 70.2" style="fill:#f0f0f0"></polygon><polygon points="411 201.46 411.38 70.2 405.04 66.58 404.65 205.1 404.66 205.11 411.03 201.48 411 201.46" style="opacity:0.1"></polygon><polygon points="455.77 227.02 411.03 201.48 404.66 205.11 455.75 234.28 455.77 227.02" style="opacity:0.2"></polygon></g><g id="freepik--Pictures--inject-13"><polygon points="89.58 92.96 57.67 111.39 57.73 135.77 89.64 117.35 89.58 92.96" style="fill:none"></polygon><polygon points="89.58 92.96 89.64 117.35 92.6 119.07 92.52 91.26 89.58 92.96" style="fill:#f0f0f0"></polygon><polygon points="57.73 135.77 57.74 139.19 92.6 119.07 89.64 117.35 57.73 135.77" style="fill:#f5f5f5"></polygon><path d="M96.08,85.1l-42,24.25.1,36,42-24.25ZM57.74,139.19v-3.42l-.07-24.38L89.58,93l2.94-1.7.08,27.81Z" style="fill:#e0e0e0"></path><polygon points="96.08 85.1 93.13 83.38 51.13 107.63 54.08 109.35 96.08 85.1" style="fill:#f5f5f5"></polygon><polygon points="51.13 107.63 51.23 143.64 54.19 145.36 54.08 109.35 51.13 107.63" style="fill:#f0f0f0"></polygon><polygon points="89.55 147.7 57.64 166.12 57.71 190.51 89.62 172.08 89.55 147.7" style="fill:none"></polygon><polygon points="89.55 147.7 89.62 172.08 92.58 173.8 92.5 146 89.55 147.7" style="fill:#f0f0f0"></polygon><polygon points="57.71 190.51 57.72 193.93 92.58 173.8 89.62 172.08 57.71 190.51" style="fill:#f5f5f5"></polygon><path d="M96.06,139.83l-42,24.25.1,36,42-24.25Zm-38.34,54.1v-3.42l-.07-24.39L89.55,147.7l3-1.7.08,27.8Z" style="fill:#e0e0e0"></path><polygon points="96.06 139.84 93.1 138.12 51.1 162.37 54.06 164.08 96.06 139.84" style="fill:#f5f5f5"></polygon><polygon points="51.1 162.37 51.21 198.38 54.16 200.09 54.06 164.08 51.1 162.37" style="fill:#f0f0f0"></polygon><path d="M138.88,108h0c.38-.18.76-.36,1.15-.56h0C139.64,107.64,139.26,107.82,138.88,108Z" style="fill:none"></path><path d="M138.46,108.2h0l.42-.21h0Z" style="fill:none"></path><polygon points="151.9 60.49 143.17 65.52 134.3 70.64 143.17 65.52 151.9 60.49" style="fill:none"></polygon><polygon points="151.98 89.25 151.95 81.15 151.93 73.76 151.95 81.15 151.98 89.25" style="fill:none"></polygon><path d="M140,107.44l.24-.12-.24.12Z" style="fill:none"></path><polygon points="152.08 124.74 152.06 117.97 152.04 112.05 152.06 117.97 152.08 124.74" style="fill:none"></polygon><path d="M135.07,109.6c1.13-.4,2.26-.87,3.39-1.39h0C137.33,108.73,136.2,109.2,135.07,109.6Z" style="fill:none"></path><polygon points="125.98 85.47 126.05 111.47 126.1 126.54 126.05 111.47 125.98 85.47" style="fill:none"></polygon><path d="M152.06,118l0-5.92-.27.15-.49.29c-4.38,2.64-8.77,6.8-12.86,11.28-.68.75-1.35,1.5-2,2.25-3.45,4-6.82,8.13-10.29,12l0,9.57,4.17-2.41A91.88,91.88,0,0,1,152.06,118Z" style="fill:#ebebeb"></path><path d="M152.1,132.66l0-7.92a50,50,0,0,0-8.88,13Z" style="fill:#ebebeb"></path><path d="M143.2,137.79a50,50,0,0,1,8.88-13l0-6.77a91.88,91.88,0,0,0-21.73,27.25l12.87-7.43Z" style="fill:#fafafa"></path><path d="M138.46,108.2h0" style="fill:none;stroke:gray;stroke-linecap:round;stroke-linejoin:round;stroke-width:0px"></path><path d="M138.88,108h0" style="fill:none;stroke:gray;stroke-linecap:round;stroke-linejoin:round;stroke-width:0px"></path><path d="M134.47,109.81l.6-.21c1.13-.4,2.26-.87,3.39-1.4l.42-.2c.38-.18.76-.36,1.15-.56.66-.33,1.32-.69,2-1.06-.66.37-1.32.73-2,1.06l.24-.12c.58-.3,1.16-.61,1.74-.94l.37-.21.31-.18a63,63,0,0,0,8.93-6.4l.39-.33,0-10c-6.35,3.25-12.6,4.26-17.64,2.69A15.48,15.48,0,0,1,126,85.47l.07,26A30.62,30.62,0,0,0,134.47,109.81Z" style="fill:#fafafa"></path><path d="M138.42,123.77c4.09-4.48,8.48-8.64,12.86-11.28l.49-.29.27-.15v-5.74a124.28,124.28,0,0,0-23.4,17.81c-.84.81-1.69,1.63-2.53,2.42l0,11.52c3.47-3.91,6.84-8.09,10.29-12C137.07,125.27,137.74,124.52,138.42,123.77Z" style="fill:#fafafa"></path><path d="M152,106.31l0-7-.39.33a63,63,0,0,1-8.93,6.4l-.31.18-.37.21c-.58.33-1.16.64-1.74.94l-.24.12-.16.09h0l.16-.09c-.39.2-.77.38-1.15.56l-.42.21c-1.13.52-2.26,1-3.39,1.39l.64-.24-.64.24-.6.21a30.62,30.62,0,0,1-8.42,1.66l0,15.07c.84-.79,1.69-1.61,2.53-2.42A124.28,124.28,0,0,1,152,106.31Z" style="fill:#ebebeb"></path><path d="M152,81.15l0-7.39c-4-.94-7.12-3.87-8.76-8.24l-8.87,5.12A18.32,18.32,0,0,0,152,81.15Z" style="fill:#fafafa"></path><path d="M134.34,91.94c5,1.57,11.29.56,17.64-2.69l0-8.1A18.32,18.32,0,0,1,134.3,70.64L126,75.46l0,10A15.48,15.48,0,0,0,134.34,91.94Z" style="fill:#ebebeb"></path><path d="M153.35,58,124.48,74.64l.22,75.52,28.87-16.67Zm-27.19,89.66,0-9.57,0-11.52,0-15.07-.07-26,0-10,8.35-4.82,8.87-5.12,8.73-5,0,13.27,0,7.39,0,8.1,0,10,0,7v5.74l0,5.92,0,6.77,0,7.92-8.9,5.13h0l-12.87,7.43Z" style="fill:#fff"></path><path d="M139.85,107.54h0" style="fill:none;stroke:gray;stroke-linecap:round;stroke-linejoin:round;stroke-width:0px"></path><path d="M139.87,107.53l.16-.09" style="fill:none;stroke:gray;stroke-linecap:round;stroke-linejoin:round;stroke-width:0px"></path><path d="M142,106.38c-.66.37-1.32.73-2,1.06" style="fill:none;stroke:gray;stroke-linecap:round;stroke-linejoin:round;stroke-width:0px"></path><line x1="140.03" y1="107.44" x2="140.03" y2="107.44" style="fill:none;stroke:gray;stroke-linecap:round;stroke-linejoin:round;stroke-width:0px"></line><path d="M135.07,109.6l.64-.24" style="fill:none;stroke:gray;stroke-linecap:round;stroke-linejoin:round;stroke-width:0px"></path><path d="M151.93,73.76l0-13.27-8.73,5C144.81,69.89,147.92,72.82,151.93,73.76Z" style="fill:#ebebeb"></path><polygon points="153.57 133.49 124.69 150.16 124.7 152.16 155.3 134.5 153.57 133.49" style="fill:#cacaca"></polygon><polygon points="153.35 57.97 153.57 133.49 155.3 134.5 155.08 56.97 153.35 57.97" style="fill:#f0f0f0"></polygon><path d="M159.72,48.93,119.81,72l.25,88.23,39.91-23Zm-35,103.23v-2l-.22-75.52L153.35,58l1.73-1,.22,77.53Z" style="fill:#e0e0e0"></path><polygon points="159.72 48.93 156.43 47.16 116.52 70.2 119.81 71.97 159.72 48.93" style="fill:#f5f5f5"></polygon><polygon points="116.52 70.2 116.77 158.43 120.06 160.2 119.81 71.97 116.52 70.2" style="fill:#f0f0f0"></polygon><polygon points="79.44 102.22 88.14 109.08 88.16 115.77 59.21 132.48 59.2 125.79 64.71 114.83 69.66 118.67 67.91 124.12 70.45 119.28 79.44 102.22" style="fill:#e0e0e0"></polygon><path d="M69.93,105.6c1.36-.79,2.47-.16,2.47,1.41A5.42,5.42,0,0,1,70,111.27c-1.37.78-2.47.15-2.48-1.41A5.42,5.42,0,0,1,69.93,105.6Z" style="fill:#e0e0e0"></path><polygon points="79.42 156.96 88.12 163.81 88.14 170.5 59.19 187.21 59.17 180.52 64.69 169.56 69.64 173.41 67.89 178.85 70.43 174.02 79.42 156.96" style="fill:#e0e0e0"></polygon><path d="M69.91,160.33c1.36-.79,2.47-.16,2.47,1.41A5.39,5.39,0,0,1,69.92,166c-1.36.79-2.47.15-2.47-1.41A5.41,5.41,0,0,1,69.91,160.33Z" style="fill:#e0e0e0"></path></g><g id="freepik--side-table--inject-13"><polygon points="200.09 265.37 204.63 268.01 204.61 262.76 200.09 265.37" style="fill:#e6e6e6"></polygon><polygon points="204.5 237.39 204.5 237.33 204.5 237.33 204.5 237.33 204.5 237.39" style="fill:#787878"></polygon><rect x="149.24" y="205.41" height="127.6" style="fill:#cfcfcf"></rect><polygon points="204.43 211.87 93.9 275.63 93.9 275.63 204.43 211.87" style="fill:#cfcfcf"></polygon><path d="M204.61,262.76l0,5.25,4.72-2.73-.18-61.62-120,69.25.18,61.63L94,331.81l0-5.24,106.09-61.2ZM93.9,275.63h0l110.53-63.76.06,20L94,295.62ZM94,301.09h0L204.5,237.33h0v.06l.06,19.93L94,321.07Z" style="fill:#ebebeb"></path><polygon points="204.56 257.31 204.5 237.39 204.5 237.33 93.97 301.09 93.97 301.09 94.03 321.07 204.56 257.31" style="fill:#f5f5f5"></polygon><polygon points="204.49 231.86 204.43 211.87 93.9 275.63 93.9 275.63 93.96 295.62 204.49 231.86" style="fill:#f5f5f5"></polygon><polygon points="89.12 272.91 42.3 245.7 42.47 307.32 89.3 334.54 89.12 272.91" style="fill:#f5f5f5"></polygon><polygon points="89.12 272.91 209.18 203.66 162.35 176.45 42.3 245.7 89.12 272.91" style="fill:#fafafa"></polygon></g><g id="freepik--Character--inject-13"><path d="M273.65,365.86h0l2.7,1.72,0,0h0a3,3,0,0,0,3-.32,9.45,9.45,0,0,0,4.31-7.45,3.07,3.07,0,0,0-1.21-2.73h0l0,0,0,0-.8-.5,25.85-10.51a1.9,1.9,0,0,0,1,1.51l-2.33,20.33v2.75a9.65,9.65,0,0,0-3.56,6.94,3,3,0,0,0,1.35,2.8h0l2.7,1.72.05,0h0a3.07,3.07,0,0,0,3-.32,9.47,9.47,0,0,0,4.31-7.46,3.07,3.07,0,0,0-1.21-2.73h0l0,0,0,0L310,369.87h0a2.37,2.37,0,0,0-1.44-.32l3-21.18h0a6.56,6.56,0,0,0,1.89-.3h0l24.48,13.23-1.41.89,0,0,0,0h0a3,3,0,0,0-1.21,2.73,9.47,9.47,0,0,0,4.3,7.45,3,3,0,0,0,3,.32h0l0,0,2.7-1.72h0a3,3,0,0,0,1.34-2.81,9.59,9.59,0,0,0-3.5-6.89V357L320.4,343.48l12-3a8.82,8.82,0,0,0-1.28,4.27,3,3,0,0,0,1.35,2.81h0l2.7,1.73.05,0h0a3,3,0,0,0,3-.32,9.47,9.47,0,0,0,4.3-7.45,3,3,0,0,0-1.21-2.73h0l0,0,0,0L338.56,337h0a2.55,2.55,0,0,0-2-.2v-.68l-1.46-.5-19.53,1v-3.45c.21-.1.42-.18.61-.29a3.31,3.31,0,0,0,1.94-2.68V307.65H305v22.59a3.25,3.25,0,0,0,1.91,2.68,6.31,6.31,0,0,0,.64.31v2.9l-14.11-3.05-.68.27v2.59l0,0h0L290,337.68l0,0,0,0h0a3,3,0,0,0-1.21,2.73,9.31,9.31,0,0,0,2.13,5.5l-13.64,6.14v3.23a5.68,5.68,0,0,0-.56.27,9.51,9.51,0,0,0-4.31,7.45A3,3,0,0,0,273.65,365.86Zm8.13-14.57,9.88-4.4h0l-13.36,5.94Zm17.47-11.11,2,1.07-1.38.63A9.92,9.92,0,0,0,299.25,340.18Zm8.27-.36-7.44,3.31h0Z" style="fill:#e0e0e0"></path><path d="M339.21,342.49l2.16-3.7L338.56,337h0a3,3,0,0,0-3.12.26,9.54,9.54,0,0,0-4.31,7.45,3,3,0,0,0,1.35,2.81h0l2.76,1.76,2.27-3.9A10.33,10.33,0,0,0,339.21,342.49Z" style="fill:#37474f"></path><path d="M338.25,339.05c2.38-1.37,4.32-.27,4.33,2.47a9.47,9.47,0,0,1-4.3,7.45c-2.39,1.38-4.33.28-4.34-2.47A9.51,9.51,0,0,1,338.25,339.05Z" style="fill:#455a64"></path><path d="M292.05,341.44l-2.16-3.71L292.7,336h0a3,3,0,0,1,3.12.26,9.47,9.47,0,0,1,4.3,7.45,2.94,2.94,0,0,1-1.34,2.8h0L296,348.24l-2.28-3.91A10.35,10.35,0,0,1,292.05,341.44Z" style="fill:#37474f"></path><path d="M293,338c-2.38-1.38-4.32-.28-4.33,2.46a9.5,9.5,0,0,0,4.3,7.46c2.39,1.37,4.33.27,4.34-2.47A9.51,9.51,0,0,0,293,338Z" style="fill:#455a64"></path><path d="M307.52,332.26h8v13.8h0a2,2,0,0,1-1.18,1.64,6.23,6.23,0,0,1-5.67,0,2,2,0,0,1-1.16-1.64h0Z" style="fill:#ebebeb"></path><polygon points="336.52 336.13 336.52 339.42 315.53 344.71 315.53 337.74 336.52 336.13" style="fill:#e0e0e0"></polygon><polygon points="336.52 336.13 335.06 335.63 315.53 336.66 315.53 337.74 336.52 336.13" style="fill:#f5f5f5"></polygon><path d="M338.62,366l-2.16-3.7,2.81-1.78h0a3,3,0,0,1,3.12.26,9.5,9.5,0,0,1,4.3,7.45,3,3,0,0,1-1.34,2.81h0l-2.76,1.75-2.28-3.9A10.4,10.4,0,0,1,338.62,366Z" style="fill:#37474f"></path><path d="M339.58,362.52c-2.38-1.38-4.32-.28-4.33,2.46a9.47,9.47,0,0,0,4.3,7.45c2.39,1.38,4.33.28,4.34-2.46A9.51,9.51,0,0,0,339.58,362.52Z" style="fill:#455a64"></path><path d="M310.67,375.36l2.17-3.71L310,369.87h0a3,3,0,0,0-3.12.26,9.51,9.51,0,0,0-4.31,7.45,3,3,0,0,0,1.35,2.8h0l2.75,1.76,2.28-3.91A10.11,10.11,0,0,0,310.67,375.36Z" style="fill:#37474f"></path><path d="M309.72,371.92c2.38-1.38,4.32-.27,4.33,2.46a9.47,9.47,0,0,1-4.31,7.46c-2.38,1.37-4.32.27-4.33-2.47A9.47,9.47,0,0,1,309.72,371.92Z" style="fill:#455a64"></path><path d="M280.37,360.82l2.17-3.7-2.81-1.78h0a3,3,0,0,0-3.12.26,9.51,9.51,0,0,0-4.31,7.45,3,3,0,0,0,1.35,2.81h0l2.75,1.75,2.28-3.9A10.3,10.3,0,0,0,280.37,360.82Z" style="fill:#37474f"></path><path d="M279.42,357.39c2.38-1.38,4.32-.28,4.33,2.46a9.45,9.45,0,0,1-4.31,7.45c-2.38,1.38-4.32.28-4.33-2.46A9.45,9.45,0,0,1,279.42,357.39Z" style="fill:#455a64"></path><polygon points="341.56 357.94 341.56 363.26 313.46 348.08 313.46 340.73 341.56 357.94" style="fill:#e0e0e0"></polygon><polygon points="343.19 357.02 315.07 340.32 313.46 340.73 341.56 357.94 343.19 357.02" style="fill:#f5f5f5"></polygon><polygon points="343.19 362.35 341.56 363.26 341.56 357.94 343.19 357.02 343.19 362.35" style="fill:#f0f0f0"></polygon><polygon points="311.57 340.73 308.14 367.9 308.14 372.75 311.57 348.38 311.57 340.73" style="fill:#e0e0e0"></polygon><rect x="306.16" y="367.9" width="1.98" height="4.86" style="fill:#f0f0f0"></rect><polygon points="306.16 367.9 309.28 340.73 311.57 340.73 308.14 367.9 306.16 367.9" style="fill:#f5f5f5"></polygon><polygon points="278.3 352.83 278.3 357.94 307.52 346.06 307.52 339.82 278.3 352.83" style="fill:#e0e0e0"></polygon><polygon points="277.17 357.18 278.3 357.94 278.3 352.83 277.17 352.1 277.17 357.18" style="fill:#f0f0f0"></polygon><polygon points="281.78 351.29 278.3 352.83 277.17 352.1 307.52 338.43 307.52 339.82 281.78 351.29" style="fill:#f5f5f5"></polygon><polygon points="292.73 333.35 292.73 336.69 301.25 341.25 307.52 338.43 307.52 337.06 292.73 333.35" style="fill:#e0e0e0"></polygon><polygon points="292.73 333.35 293.4 333.08 307.52 336.13 307.52 337.06 292.73 333.35" style="fill:#f5f5f5"></polygon><path d="M305,307.65h13.11v22.59h0a3.31,3.31,0,0,1-1.94,2.68,10.21,10.21,0,0,1-9.26,0,3.25,3.25,0,0,1-1.91-2.68h0Z" style="fill:#e0e0e0"></path><path d="M253.36,271.35a7.25,7.25,0,0,1,2.49-2.41l4.9-2.51c0-17.47-2.58-15.76-7.39-22.61s2.56-11.11,8.12-8.07h0s31.06,9.14,39.28,1.07c10.22-10,5.94-35.32,4.72-45.22s0-16.75,2.74-19.64,6.7-7.16,19.56-1.83c0,0,34.67,15,51.64,23.4A22.82,22.82,0,0,1,390.11,199a7.18,7.18,0,0,1,2,2.59,3.06,3.06,0,0,1-.38,3.08,3,3,0,0,1-2,.92l-21.42,79.13a19,19,0,0,1-9.72,11.95L321.1,315.58a12.54,12.54,0,0,1-11.51-.11l-53.4-28.37C250.86,284.06,250.36,275.9,253.36,271.35Z" style="fill:#37474f"></path><path d="M253.36,271.35a8.36,8.36,0,0,0,2.83,2.68l53.4,28.36a12.51,12.51,0,0,0,11.51.12l37.41-18.95a19,19,0,0,0,9.72-11.95l18-66.68.91.28a7.3,7.3,0,0,0,2.36.35h.1l-21.42,79.13a19,19,0,0,1-9.72,11.95L321.1,315.58a12.54,12.54,0,0,1-11.51-.11l-53.4-28.37C250.86,284.06,250.36,275.9,253.36,271.35Z" style="fill:#37474f"></path><path d="M255.85,268.94l38.69-19.85,51,26.22c-1.66.4-3.34.73-5,1.07-4.38.88-8.85,1.85-12.66,4.19s-6.88,6.35-6.91,10.82l1.36,10.51h0l-1.18.61a12.51,12.51,0,0,1-11.51-.12L256.19,274a8.36,8.36,0,0,1-2.83-2.68A7.25,7.25,0,0,1,255.85,268.94Z" style="fill:#455a64"></path><path d="M255.85,268.94l38.69-19.85,51,26.22c-1.66.4-3.34.73-5,1.07-4.38.88-8.85,1.85-12.66,4.19s-6.88,6.35-6.91,10.82l1.36,10.51h0l-1.18.61a12.51,12.51,0,0,1-11.51-.12L256.19,274a8.36,8.36,0,0,1-2.83-2.68A7.25,7.25,0,0,1,255.85,268.94Z" style="opacity:0.1"></path><path d="M261.48,235.75s31.06,9.14,39.28,1.07c10.22-10,5.94-35.32,4.72-45.22s0-16.75,2.74-19.64,6.7-7.16,19.56-1.83c-13,6.7-14.69,38.54-10.58,51.32-10.2,10.5-9.5,26.76-9.7,34.31,0,0-26.53,6.48-40.39,14.1Z" style="fill:#455a64"></path><path d="M261.48,235.75s31.06,9.14,39.28,1.07c10.22-10,5.94-35.32,4.72-45.22s0-16.75,2.74-19.64,6.7-7.16,19.56-1.83c-13,6.7-14.69,38.54-10.58,51.32-10.2,10.5-9.5,26.76-9.7,34.31,0,0-26.53,6.48-40.39,14.1Z" style="fill:#fff;opacity:0.1"></path><path d="M267.11,269.86l-6.36-3.43c0-17.47-2.58-15.76-7.39-22.61s2.56-11.11,8.12-8.07S269.28,248,267.11,269.86Z" style="fill:#455a64"></path><path d="M267.11,269.86l-6.36-3.43c0-17.47-2.58-15.76-7.39-22.61s2.56-11.11,8.12-8.07S269.28,248,267.11,269.86Z" style="fill:#fff;opacity:0.2"></path><path d="M327.78,170.13s34.8,15.07,51.73,23.45l-1.23,6.18-55.49-25.2A14.8,14.8,0,0,1,327.78,170.13Z" style="fill:#455a64"></path><path d="M327.78,170.13s34.8,15.07,51.73,23.45l-1.23,6.18-55.49-25.2A14.8,14.8,0,0,1,327.78,170.13Z" style="fill:#fff;opacity:0.1"></path><path d="M317.2,221.45c-3.51-10.91-2.79-35.7,5.59-46.89l55.49,25.2L365.6,263.33l-20.1,12-38-19.55C307.7,248.21,307,232,317.2,221.45Z" style="fill:#455a64"></path><path d="M351.55,234.2c-.94-.55-1.71-.11-1.71,1a3.72,3.72,0,0,0,1.7,2.94c.94.55,1.7.11,1.71-1A3.75,3.75,0,0,0,351.55,234.2Z" style="fill:#455a64"></path><path d="M343,229.15c-.94-.54-1.71-.11-1.71,1a3.77,3.77,0,0,0,1.7,2.95c.94.54,1.71.1,1.71-1A3.75,3.75,0,0,0,343,229.15Z" style="fill:#455a64"></path><path d="M334.37,224.1c-.94-.54-1.7-.1-1.71,1a3.75,3.75,0,0,0,1.7,2.94c.94.54,1.71.11,1.71-1A3.74,3.74,0,0,0,334.37,224.1Z" style="fill:#455a64"></path><path d="M325.79,219.06c-1-.55-1.71-.11-1.72,1a3.75,3.75,0,0,0,1.7,2.94c1,.55,1.71.11,1.71-1A3.71,3.71,0,0,0,325.79,219.06Z" style="fill:#455a64"></path><g style="opacity:0.2"><path d="M351.55,234.2c-.94-.55-1.71-.11-1.71,1a3.72,3.72,0,0,0,1.7,2.94c.94.55,1.7.11,1.71-1A3.75,3.75,0,0,0,351.55,234.2Z" style="fill:#fff"></path><path d="M343,229.15c-.94-.54-1.71-.11-1.71,1a3.77,3.77,0,0,0,1.7,2.95c.94.54,1.71.1,1.71-1A3.75,3.75,0,0,0,343,229.15Z" style="fill:#fff"></path><path d="M334.37,224.1c-.94-.54-1.7-.1-1.71,1a3.75,3.75,0,0,0,1.7,2.94c.94.54,1.71.11,1.71-1A3.74,3.74,0,0,0,334.37,224.1Z" style="fill:#fff"></path><path d="M325.79,219.06c-1-.55-1.71-.11-1.72,1a3.75,3.75,0,0,0,1.7,2.94c1,.55,1.71.11,1.71-1A3.71,3.71,0,0,0,325.79,219.06Z" style="fill:#fff"></path></g><path d="M327.83,280.57c3.81-2.34,8.28-3.31,12.66-4.19,1.67-.34,3.35-.67,5-1.07a31,31,0,0,0,7.75-2.83c6.14-3.39,10.26-9.73,12.24-16.46s2-13.86,1.6-20.86-1.28-14-1.07-21c.12-4.08.74-8.45,3.5-11.45s7.44-4.06,11.6-3.5a24,24,0,0,1,4,.95l1.85,2.15-.71,2.62-18,66.68a19,19,0,0,1-8.29,11.13c-.47.29-.94.57-1.43.82L322.28,301.9l-1.36-10.51C321,286.92,324,282.91,327.83,280.57Z" style="fill:#37474f"></path><path d="M327.78,273.4c13.25-3.77,26.27-4.26,31.06-13.78S364,237,361.59,214.13a34.22,34.22,0,0,1,.21-8.84c1.41-8.54,6.55-12.19,12.46-12.28a23,23,0,0,1,15.85,6,7.18,7.18,0,0,1,2,2.59,3.06,3.06,0,0,1-.38,3.08,3,3,0,0,1-2,.92h-.1a7.3,7.3,0,0,1-2.36-.35l-.91-.28c-1.62-.51-3.21-1.12-4.86-1.53a10.63,10.63,0,0,0-6,0,6.34,6.34,0,0,0-3.83,4.27c-5.58,18.25,1.5,37.86-4.78,52.93-5.14,13.7-22.9,19.39-35.43,23.45h0a7.61,7.61,0,0,0,3.12-2.27,5.26,5.26,0,0,0-.48-6.35A7,7,0,0,0,327.78,273.4Z" style="fill:#455a64"></path><path d="M327.78,273.4c13.25-3.77,26.27-4.26,31.06-13.78S364,237,361.59,214.13a34.22,34.22,0,0,1,.21-8.84c1.41-8.54,6.55-12.19,12.46-12.28a23,23,0,0,1,15.85,6,7.18,7.18,0,0,1,2,2.59,3.06,3.06,0,0,1-.38,3.08,3,3,0,0,1-2,.92h-.1a7.3,7.3,0,0,1-2.36-.35l-.91-.28c-1.62-.51-3.21-1.12-4.86-1.53a10.63,10.63,0,0,0-6,0,6.34,6.34,0,0,0-3.83,4.27c-5.58,18.25,1.5,37.86-4.78,52.93-5.14,13.7-22.9,19.39-35.43,23.45h0a7.61,7.61,0,0,0,3.12-2.27,5.26,5.26,0,0,0-.48-6.35A7,7,0,0,0,327.78,273.4Z" style="fill:#fff;opacity:0.1"></path><path d="M318.59,282.78a19.79,19.79,0,0,1,3.39-5.94,10.19,10.19,0,0,1,5.8-3.44,7,7,0,0,1,6.27,2,5.26,5.26,0,0,1,.48,6.35,7.61,7.61,0,0,1-3.12,2.27,29.31,29.31,0,0,0-2.92,1.44,12.29,12.29,0,0,0-5,7.07,36.81,36.81,0,0,0-1.16,8.76l-.05.57-6.2-3.44A38,38,0,0,1,318.59,282.78Z" style="fill:#455a64"></path><path d="M318.59,282.78a19.79,19.79,0,0,1,3.39-5.94,10.19,10.19,0,0,1,5.8-3.44,7,7,0,0,1,6.27,2,5.26,5.26,0,0,1,.48,6.35,7.61,7.61,0,0,1-3.12,2.27,29.31,29.31,0,0,0-2.92,1.44,12.29,12.29,0,0,0-5,7.07,36.81,36.81,0,0,0-1.16,8.76l-.05.57-6.2-3.44A38,38,0,0,1,318.59,282.78Z" style="fill:#fff;opacity:0.2"></path><path d="M359.44,153v2.61c4.05.8,8,1.67,12.17-.39l-.23-4.52V145l-4.25-.45Z" style="fill:#ffa8a7"></path><path d="M359.44,153c4.62,1.91,7.89-2.39,7.89-2.39a2.52,2.52,0,0,0,3.48-.15l.8,4.76v-11.8l-5.45.24-7.34,7.25Z" style="opacity:0.2"></path><path d="M367.81,140.15l7.42.37a2.22,2.22,0,0,1,2,1.67h0a32.07,32.07,0,0,1,1,7.92v3.94a2.67,2.67,0,0,1-.78,1.89h0a2.67,2.67,0,0,1-2.16.77l-2.36-.24a1.49,1.49,0,0,1-1.35-1.41l-.22-4.4V143a2.17,2.17,0,0,0-1.42-2Z" style="fill:#ffa8a7"></path><path d="M357.4,146.12l6.41-5.64a3.23,3.23,0,0,1,3.23-.61l2.92,1.06a2.17,2.17,0,0,1,1.42,2v5.43a2,2,0,0,1-2.25,2h0a2,2,0,0,1-1.83-1.94l-.17-4a7.73,7.73,0,0,1-7.69,8.43Z" style="fill:#ffa8a7"></path><path d="M372.14,154.73l.21-11.88a1.92,1.92,0,0,0-1.45-1.91l-3.09-.79,2.15.78a2.17,2.17,0,0,1,1.42,2v7.69l.22,4.4a1.49,1.49,0,0,0,1.35,1.41l.59.06-.5-.27A1.67,1.67,0,0,1,372.14,154.73Z" style="opacity:0.2"></path><path d="M357.4,146.12h0a13.68,13.68,0,0,0-5.31,4.61l-23.73,35-25.12,12.11,13.69,17.58,21.68-16.82a23.65,23.65,0,0,0,6.94-8.74l15.68-34Z" style="fill:#ffa8a7"></path><path d="M360.44,159.25a9.21,9.21,0,0,0-9.42-8.48l-23.38,34.45-24.4,12.66,13.69,17.58,24.27-17.31a18.42,18.42,0,0,0,6.29-7.89Z" style="fill:#2158E8"></path><path d="M360.44,159.25a9.21,9.21,0,0,0-9.42-8.48l-23.38,34.45-24.4,12.66,13.69,17.58,24.27-17.31a18.42,18.42,0,0,0,6.29-7.89Z" style="fill:#fff;opacity:0.30000000000000004"></path><path d="M357.42,153.13a9.35,9.35,0,0,0-6.4-2.36l-3.91,5.75a9.58,9.58,0,0,1,10.48,9.55l2.85-6.82A9.36,9.36,0,0,0,357.42,153.13Z" style="fill:#fff;opacity:0.30000000000000004"></path><path d="M375.73,141.94a11.31,11.31,0,0,0,10.29,0,3.59,3.59,0,0,0,2.12-3,3.65,3.65,0,0,0-2.15-3,11.33,11.33,0,0,0-10.3,0,3.15,3.15,0,0,0,0,6Z" style="fill:#e0e0e0"></path><path d="M376.43,144.72a9.81,9.81,0,0,0,8.89,0,3.09,3.09,0,0,0,1.82-2.57,3.16,3.16,0,0,0-1.85-2.58,9.81,9.81,0,0,0-8.89,0,2.72,2.72,0,0,0,0,5.15Z" style="fill:#f28f8f"></path><path d="M376.43,144.72a9.81,9.81,0,0,0,8.89,0,3.09,3.09,0,0,0,1.82-2.57,3.16,3.16,0,0,0-1.85-2.58,9.81,9.81,0,0,0-8.89,0,2.72,2.72,0,0,0,0,5.15Z" style="opacity:0.30000000000000004"></path><path d="M376.43,144.72a9.81,9.81,0,0,0,8.89,0,3.09,3.09,0,0,0,1.82-2.57,3.16,3.16,0,0,0-1.85-2.58,9.81,9.81,0,0,0-8.89,0,2.72,2.72,0,0,0,0,5.15Z" style="fill:#fff;opacity:0.30000000000000004"></path><path d="M388.14,139a3.59,3.59,0,0,1-2.12,3,11.31,11.31,0,0,1-10.29,0,3.63,3.63,0,0,1-2.15-3h0v17.91h0a3.65,3.65,0,0,0,2.15,3,11.38,11.38,0,0,0,10.29,0,3.61,3.61,0,0,0,2.12-3h0V139Z" style="fill:#f5f5f5"></path><path d="M310.77,194c13.72,2.27,17.54,7.81,19,12.31l-12.86,9.18-13.69-17.58Z" style="opacity:0.2"></path><polygon points="209.4 149.65 226.21 198.35 260.95 179.07 244.33 130.9 209.4 149.65" style="fill:#2158E8"></polygon><polygon points="209.4 149.65 226.21 198.35 260.95 179.07 244.33 130.9 209.4 149.65" style="opacity:0.30000000000000004"></polygon><polygon points="209.4 149.65 226.21 198.35 260.95 179.07 244.33 130.9 209.4 149.65" style="fill:#fff;opacity:0.2"></polygon><polygon points="255.79 177.09 241.95 136.99 214.58 151.67 228.56 192.2 255.79 177.09" style="fill:#fff"></polygon><polygon points="237.13 139.96 221.91 147.94 221.25 145.91 224.21 143.31 232.54 139.13 236.33 138.42 237.13 139.96" style="fill:#455a64"></polygon><polygon points="232.54 139.13 231.88 137.58 223.75 141.95 224.21 143.31 232.54 139.13" style="fill:#37474f"></polygon><polygon points="236.61 135.05 218.21 144.92 217.42 143 235.98 133.26 236.61 135.05" style="fill:#455a64"></polygon><path d="M231.63,135.54c-1.6-5.06-11.22-.29-9.34,4.91Z" style="fill:#37474f"></path><path d="M264.92,192.2l-14.3,13.42-22.29-21.93a7.75,7.75,0,0,1-2.26-4.57c-1.06-8.32-3.37-14.26-6.33-13.21-1.86.65.52,8.75.52,8.75l-2.78-1.58-3.24-9.4h-1.46a3.71,3.71,0,0,0-3.5,2.49l-1.39,4A11.79,11.79,0,0,0,212,183.52l4.89,3.62a7.5,7.5,0,0,1,1.87,2c9.62,14.58,19.9,27,26.14,33.41a6.67,6.67,0,0,0,8.44.87c13.64-9,24.92-24.26,24.92-24.26Z" style="fill:#ffa8a7"></path><path d="M217.77,189.15a8.78,8.78,0,0,1,4.32-5.35,10.33,10.33,0,0,1,7.38-1.12l21.2,20.83,14.25-11.31,13.35,6.94c-9.19,12.89-17.84,20.76-23.31,25a8.29,8.29,0,0,1-10.88-.61C225.32,205.12,217.77,189.15,217.77,189.15Z" style="fill:#2158E8"></path><path d="M217.77,189.15a8.78,8.78,0,0,1,4.32-5.35,10.33,10.33,0,0,1,7.38-1.12l21.2,20.83,14.25-11.31,13.35,6.94c-9.19,12.89-17.84,20.76-23.31,25a8.29,8.29,0,0,1-10.88-.61C225.32,205.12,217.77,189.15,217.77,189.15Z" style="fill:#fff;opacity:0.30000000000000004"></path><path d="M226.05,189.65a12.94,12.94,0,0,1,9-1.49l-5.57-5.48a10.33,10.33,0,0,0-7.38,1.12,8.78,8.78,0,0,0-4.32,5.35s1,2.19,3.3,5.88A12.92,12.92,0,0,1,226.05,189.65Z" style="fill:#fff;opacity:0.30000000000000004"></path><path d="M250.67,203.51a27.73,27.73,0,0,0-6.88,6.71c.17-5.6,1.84-7.91,4.72-8.83Z" style="opacity:0.2"></path><path d="M319.44,199.42l30.71,33.48,26.35-18.5a10.08,10.08,0,0,1,7.72-1.66l10.24,1.94a2.84,2.84,0,0,1,2.28,2.54l.33,3.76a1.79,1.79,0,0,1-1,1.77l-3.22,1.61,2.4,3a2.13,2.13,0,0,1-.33,3h0a2.12,2.12,0,0,1-2.86-.17l-5.2-5.33L385.23,226a3.83,3.83,0,0,1-5.16-.67l-1.49-1.79-21.43,22.31a9.48,9.48,0,0,1-12.71.86L315.73,224Z" style="fill:#ffa8a7"></path><path d="M386.87,224.85,382.14,221h0a5.52,5.52,0,0,0,4.27,3.73Z" style="opacity:0.2"></path><polygon points="392.86 224.36 389.97 221.04 396.08 222.75 392.86 224.36" style="opacity:0.2"></polygon><path d="M374.62,215.72c-3.67,2.57.08,10.06,2.15,10.75l-18.61,20.91a10.62,10.62,0,0,1-14.47,1.3l-29.08-22.79,1.12-1.87,3.71-24.6,30.67,31.65S370,216.48,374.62,215.72Z" style="fill:#2158E8"></path><path d="M374.62,215.72c-3.67,2.57.08,10.06,2.15,10.75l-18.61,20.91a10.62,10.62,0,0,1-14.47,1.3l-29.08-22.79,1.12-1.87,3.71-24.6,30.67,31.65S370,216.48,374.62,215.72Z" style="fill:#fff;opacity:0.30000000000000004"></path><path d="M374.62,215.72c-1.41.23-4.27,1.77-7.55,3.79a8.16,8.16,0,0,0-.74,6.71,8.3,8.3,0,0,0,6.06,5.18l4.38-4.93C374.7,225.78,371,218.29,374.62,215.72Z" style="fill:#fff;opacity:0.6000000000000001"></path><polygon points="319.44 199.43 324.52 204.67 334.14 241.2 314.61 225.89 315.73 224.01 319.44 199.43" style="opacity:0.2"></polygon><polygon points="350.11 231.07 344.11 235.15 347.81 228.69 350.11 231.07" style="opacity:0.2"></polygon><path d="M377.41,275.51l10.53-43a5.07,5.07,0,0,1,2.4-3.19l26.29-15.14a.91.91,0,0,1,.5-.13h0a2.47,2.47,0,0,1,2.38,1.67h0a1,1,0,0,1,.07.67L409,259.39a5.1,5.1,0,0,1-2.4,3.19l-26.29,15.14a1,1,0,0,1-.69.11h0a3,3,0,0,1-2.19-1.66l0-.08s0,0,0,0h0A1,1,0,0,1,377.41,275.51Z" style="fill:#2158E8"></path><path d="M378.85,276.59l10.54-43a5.07,5.07,0,0,1,2.4-3.19l26.29-15.14a1,1,0,0,1,1.5,1.12L409,259.39a5.1,5.1,0,0,1-2.4,3.19l-26.29,15.14a1,1,0,0,1-1.5-1.13Z" style="opacity:0.30000000000000004"></path><path d="M395.58,257c-2.8-1.23-9.43,6.41-14.9,5.3l1.37-5.52c-8.58,1-11,4.1-14,4.51a28.31,28.31,0,0,1-5.62-.23,26.27,26.27,0,0,1,.06,13.18c3,0,5.17.09,5.93.09,3.88,0,8.42,1.65,12.63.81,8-1.89,11.12-4.8,11.15-8.26,0,0,3.28-2.23,2.26-5.8C394.43,261.06,398.38,258.22,395.58,257Z" style="fill:#ffa8a7"></path><path d="M356.91,259.36c-7.52-1.33-10.82-2.62-20-3.09l-6.35-17.81h0c-2.88-8.94-9.71-28.7-15.62-34.7-17,3.63-18.27,11.4-3,48,1.12,2.71,5.4,11.31,8.4,17.27a11,11,0,0,0,9.8,6.05h26.09A32.85,32.85,0,0,0,356.91,259.36Z" style="fill:#2158E8"></path><path d="M365.79,260.61c-3.62-.4-6.46-.83-8.88-1.25a32.85,32.85,0,0,1-.65,15.68h8.57S369,266.92,365.79,260.61Z" style="fill:#2158E8"></path><path d="M356.91,259.36c-7.52-1.33-10.82-2.62-20-3.09l-6.35-17.81h0c-2.88-8.94-9.71-28.7-15.62-34.7-17,3.63-18.27,11.4-3,48,1.12,2.71,5.4,11.31,8.4,17.27a11,11,0,0,0,9.8,6.05h26.09A32.85,32.85,0,0,0,356.91,259.36Z" style="fill:#fff;opacity:0.30000000000000004"></path><path d="M365.79,260.61c-3.62-.4-6.46-.83-8.88-1.25a32.85,32.85,0,0,1-.65,15.68h8.57S369,266.92,365.79,260.61Z" style="fill:#fff;opacity:0.6000000000000001"></path><path d="M336.93,256.27A45.64,45.64,0,0,0,326,257.56a24.57,24.57,0,0,1,9.05-6.56Z" style="opacity:0.2"></path><path d="M295.93,308.1c6.12-2.64,14.45-7.05,17.6-12.93s2.84-16.63,1.64-23.19l-49.24-13.65c-1.48,14.28-14.6,23.63-14.6,23.63Z" style="fill:#263238"></path><path d="M227.18,217.9l-4.66-3.45a9.19,9.19,0,0,1-3.16-4.24l-1.1-3a11.43,11.43,0,0,0-3.9-5.2,39.17,39.17,0,0,1-7.14-6.86h0a4.3,4.3,0,0,0-.31,5.43,29.78,29.78,0,0,0,2.85,3.26l-2.57.18a8.88,8.88,0,0,1-5.27-1.29l-6.51-4a1.23,1.23,0,0,0-1.88,1,28.09,28.09,0,0,0,1.88,9.42,10.58,10.58,0,0,0,6.21,6.28c3.45,1.32,6.81,2.47,8.73,3.11a11,11,0,0,1,3.06,1.59l6.83,5.09Z" style="fill:#ffa8a7"></path><path d="M222.12,213.41,228,217.2a11.46,11.46,0,0,1-7.56,9.82l-5.39-5.1S220.24,221.12,222.12,213.41Z" style="fill:#2158E8"></path><path d="M222.12,213.41,228,217.2a11.46,11.46,0,0,1-7.56,9.82l-5.39-5.1S220.24,221.12,222.12,213.41Z" style="fill:#fff;opacity:0.6000000000000001"></path><path d="M225.81,223A11.73,11.73,0,0,0,228,217.2l18.38,11.85,10.84-30.34a11.44,11.44,0,0,1,9.31-7.5l5.3-.68-4.95,35.52L258.43,243a11.27,11.27,0,0,1-17.24,3.68L220.43,227A11.72,11.72,0,0,0,225.81,223Z" style="fill:#2158E8"></path><path d="M225.81,223A11.73,11.73,0,0,0,228,217.2l18.38,11.85,10.84-30.34a11.44,11.44,0,0,1,9.31-7.5l5.3-.68-4.95,35.52L258.43,243a11.27,11.27,0,0,1-17.24,3.68L220.43,227A11.72,11.72,0,0,0,225.81,223Z" style="fill:#fff;opacity:0.4"></path><polygon points="246.37 229.05 253.33 234.27 248.3 223.64 246.37 229.05" style="opacity:0.2"></polygon><path d="M253.24,102.57l-1.69,4.05a9.73,9.73,0,0,0-.73,4.4l1,15L266,174a26.93,26.93,0,0,0,4.43,8.74l14.33,18.77,11.76-12.74-13.75-18.06L261.32,125l4.18-4.82a7.42,7.42,0,0,0,1.76-4.06l.49-4.67a1.49,1.49,0,0,0-1.2-1.62h0a1.66,1.66,0,0,0-1.87,1l-1.5,3.72a3.17,3.17,0,0,1-1,1.3h0a3.12,3.12,0,0,1-4.45-.68l-2.4-3.42Z" style="fill:#ffa8a7"></path><path d="M262.81,126.06a10.14,10.14,0,0,0-10.58,3.73l12.14,44.32a22.59,22.59,0,0,0,3.43,7.19l15.59,21.62,1.33-1.38,11.76-12.74-13.75-18.06Z" style="fill:#2158E8"></path><path d="M262.81,126.06a10.14,10.14,0,0,0-10.58,3.73l12.14,44.32a22.59,22.59,0,0,0,3.43,7.19l15.59,21.62,1.33-1.38,11.76-12.74-13.75-18.06Z" style="fill:#fff;opacity:0.30000000000000004"></path><path d="M259.12,132.51a9.2,9.2,0,0,1,6.67.24l-3-6.69a10.14,10.14,0,0,0-10.58,3.73l1.91,7A9.23,9.23,0,0,1,259.12,132.51Z" style="fill:#fff;opacity:0.30000000000000004"></path><path d="M281.6,189.49l-9.78,1c-8,7.07-12.15,21.89-10.43,38.26a292,292,0,0,1,1.21,33.79c21.71,15.86,49.12,12.85,52.57,9.4l-1.61-28.62a13.9,13.9,0,0,1,1.1-6.61c2-4.76,5.71-14.14,6.2-21.4a37.94,37.94,0,0,0-4-18.7l-14.22-6.21Z" style="fill:#2158E8"></path><g style="opacity:0.5"><path d="M281.6,189.49l-9.78,1c-8,7.07-12.15,21.89-10.43,38.26a292,292,0,0,1,1.21,33.79c21.71,15.86,49.12,12.85,52.57,9.4l-1.61-28.62a13.9,13.9,0,0,1,1.1-6.61c2-4.76,5.71-14.14,6.2-21.4a37.94,37.94,0,0,0-4-18.7l-14.22-6.21Z" style="fill:#fff"></path></g><path d="M278.88,203.76c-8.18,18.83-8.05,38.22-8.05,38.22l4,8.66,6.32-8.27a325,325,0,0,1,.76-38.05Z" style="fill:#2158E8"></path><path d="M278.54,196.65a29.71,29.71,0,0,0,.34,7.11,5.73,5.73,0,0,0,3.05.56,24.92,24.92,0,0,0,4.88-5.91l-4.88-1.76Z" style="fill:#2158E8"></path><path d="M281.93,196.65c4.21,1.55,8,9,8,9,11.06-9.4,12.78-15.26,12.78-15.26a22,22,0,0,0-5.36-5.66Z" style="fill:#2158E8"></path><path d="M281.93,196.65c-3.22.08-6.06,4.57-6.06,4.57-.52-7.85,6.06-13.88,6.06-13.88Z" style="fill:#2158E8"></path><g style="opacity:0.35000000000000003"><path d="M281.93,196.65c4.21,1.55,8,9,8,9,11.06-9.4,12.78-15.26,12.78-15.26a22,22,0,0,0-5.36-5.66Z" style="fill:#fff"></path><path d="M281.93,196.65c-3.22.08-6.06,4.57-6.06,4.57-.52-7.85,6.06-13.88,6.06-13.88Z" style="fill:#fff"></path></g><path d="M302.68,153.16a8.71,8.71,0,0,0-5.58-3L268,152.9c-3.36,7.22-.68,12-.68,12-.45,11-.83,18,3.94,20.33,2.6,1.27,6.56,1.81,10.64,1.5a25.07,25.07,0,0,0,9.75-2.63l.15-.08a8.34,8.34,0,0,0,4.18-5.57,46.11,46.11,0,0,0,1-6.51,27.12,27.12,0,0,1,.4-3.72,6.67,6.67,0,0,1,1.64-3.29,3.72,3.72,0,0,1,3.35-1.14,2.57,2.57,0,0,1,.6.23C303.79,159.11,304,154.87,302.68,153.16Z" style="fill:#37474f"></path><path d="M292,154a10.43,10.43,0,0,0,.39,6.19,45.79,45.79,0,0,1,1.85,6,10,10,0,0,1-.8,6.07,7.07,7.07,0,0,1-4.64,3.76c-3.13.67-6.19-1.18-9.32-1.8a12.93,12.93,0,0,0-8.77,1.57,1.51,1.51,0,0,1-2.29-1.22c-.37-6.34-.37-16.28.56-20.94Z" style="fill:#ffa8a7"></path><path d="M295,182.32h0Z" style="fill:#ffa8a7"></path><path d="M297.52,175.1s0,2.57-.12,5.64a8.79,8.79,0,0,0,2.71-4.27A4,4,0,0,1,297.52,175.1Z" style="fill:#37474f"></path><path d="M269.48,148.26l-3.62-2.55a7.87,7.87,0,0,0,1.39,7.23,11.44,11.44,0,0,0,6.38,3.81,24.16,24.16,0,0,0,7.5.35,55.28,55.28,0,0,0,10.83-2,8.62,8.62,0,0,0,4.26-2.27,5.76,5.76,0,0,0,.22-6.73,8.39,8.39,0,0,0-6-3.52,22.53,22.53,0,0,0-7.21.58,21.35,21.35,0,0,1-7.2.52,7.52,7.52,0,0,1-5.81-3.9C268.2,143.12,269.48,148.26,269.48,148.26Z" style="fill:#37474f"></path><polygon points="278.62 165.24 273.31 171.76 278.18 173.51 278.62 165.24" style="fill:#f28f8f"></polygon><path d="M282.64,176.75l-4.1,1.28a2.5,2.5,0,0,0,2.76,1.29A2.33,2.33,0,0,0,282.64,176.75Z" style="fill:#f28f8f"></path><path d="M282.64,176.75l-4.1,1.28a2.5,2.5,0,0,0,2.76,1.29A2.33,2.33,0,0,0,282.64,176.75Z" style="opacity:0.30000000000000004"></path><path d="M280,179.24a2.21,2.21,0,0,0,1.34.08,2.08,2.08,0,0,0,1.33-1.88,2.36,2.36,0,0,0-1.58.3A2.39,2.39,0,0,0,280,179.24Z" style="fill:#f28f8f"></path><path d="M285.84,166.67a1.46,1.46,0,1,1-1.38-1.56A1.46,1.46,0,0,1,285.84,166.67Z" style="fill:#263238"></path><path d="M273.64,165.52a1.46,1.46,0,1,1-1.38-1.55A1.47,1.47,0,0,1,273.64,165.52Z" style="fill:#263238"></path><path d="M272.53,159.56l-3.35,2.09a2.13,2.13,0,0,1,.76-2.28A2.42,2.42,0,0,1,272.53,159.56Z" style="fill:#263238"></path><path d="M285,160.07c1,.81,2.08,1.62,3.11,2.44a2.13,2.13,0,0,0-.51-2.36A2.44,2.44,0,0,0,285,160.07Z" style="fill:#263238"></path><path d="M305,166.15a4.1,4.1,0,0,0-2-2.14,2.57,2.57,0,0,0-.6-.23,3.72,3.72,0,0,0-3.35,1.14,6.67,6.67,0,0,0-1.64,3.29,27.12,27.12,0,0,0-.4,3.72,45.57,45.57,0,0,1-1,6.67,8.2,8.2,0,0,1-4.15,5.41l-.14.08a25.07,25.07,0,0,1-9.75,2.63v9.93l13.76-8.15a3.31,3.31,0,0,0,1.63-2.8c0-1.59.07-3.34.11-5,.07-3.07.12-5.64.12-5.64a4,4,0,0,0,2.59,1.37,3.42,3.42,0,0,0,1.36-.07,5.12,5.12,0,0,0,3-2.62,9.81,9.81,0,0,0,1-4A8.26,8.26,0,0,0,305,166.15Z" style="fill:#ffa8a7"></path><path d="M293.6,183.89a9.39,9.39,0,0,0,1.7-3.58,8.23,8.23,0,0,1-3.52,3.7l-.14.08a25.07,25.07,0,0,1-9.75,2.63v2.53a24.05,24.05,0,0,0,5.76-1.23A12.93,12.93,0,0,0,293.6,183.89Z" style="opacity:0.2"></path><path d="M171.77,385.1c2.81,2.95,7.07,4.2,11.14,4.1a33.82,33.82,0,0,0,11.79-3c3.77-1.55,8.5-5.88,12.57-5.8a98.62,98.62,0,0,0,11.92-.82,61.88,61.88,0,0,0-1.69-16.14l-19-.51c-5.13,7-15.12,12.89-22.68,15.09a6.63,6.63,0,0,0-4.69,5,.49.49,0,0,0,0,.12A8.13,8.13,0,0,0,171.77,385.1Z" style="fill:#455a64"></path><path d="M207.27,380.42c-4.07-.08-8.8,4.25-12.57,5.8a33.82,33.82,0,0,1-11.79,3c-4.07.1-8.33-1.15-11.14-4.1a8.13,8.13,0,0,1-.66-1.94.49.49,0,0,1,0-.12,6,6,0,0,0,0,2.54,8.14,8.14,0,0,0,.66,1.93c2.81,2.95,7.07,4.2,11.14,4.1a33.59,33.59,0,0,0,11.79-3c3.77-1.55,8.5-5.89,12.57-5.81a89.72,89.72,0,0,0,11.74-.68q.13-1.27.18-2.55A98.62,98.62,0,0,1,207.27,380.42Z" style="fill:#263238"></path><path d="M261,391.06a28.59,28.59,0,0,1-.57,5.77,13.39,13.39,0,0,1-5.28,8.42c-2.44,1.6-5.46,2.05-8.38,2.23a18.69,18.69,0,0,1-7.67-.79,8.72,8.72,0,0,1-4.49-3.67s0,.07,0,.1a8,8,0,0,0,5.16,5.38,18.56,18.56,0,0,0,7.67.79c2.92-.18,5.94-.62,8.38-2.23a13.35,13.35,0,0,0,5.28-8.42,27.22,27.22,0,0,0,.57-5.77,9.73,9.73,0,0,1,3.1-7.05c.47-.45.93-.91,1.35-1.39a3.44,3.44,0,0,0,.82-2.52c0-.36-.07-.71-.11-1.05-.7.81-2.34,2.76-2.76,3.15A9.72,9.72,0,0,0,261,391.06Z" style="fill:#263238"></path><path d="M246.45,371a21,21,0,0,1-1.48,11.7,44.42,44.42,0,0,1-6.19,10.18,28.7,28.7,0,0,0-3.24,4.73,8.45,8.45,0,0,0-.92,5.45,8.72,8.72,0,0,0,4.49,3.67,18.69,18.69,0,0,0,7.67.79c2.92-.18,5.94-.63,8.38-2.23a13.39,13.39,0,0,0,5.28-8.42,28.59,28.59,0,0,0,.57-5.77A9.72,9.72,0,0,1,264.1,384c.42-.39,2.06-2.34,2.76-3.15a21.47,21.47,0,0,0-2.85-8.17Z" style="fill:#455a64"></path><path d="M228.5,337.05c-2.35,9.94-3.94,16.19-8.26,29.54,0,0-16.72,3.58-23.31-2.94l7.53-36.36Z" style="fill:#263238"></path><path d="M269.24,339.9c-.64,10.19-.26,19.38-2.26,33.27,0,0-14.24,4.73-21.84-.58l-1.25-24.29Z" style="fill:#263238"></path><polygon points="102.22 270.96 102.22 359.34 105.34 357.53 105.34 269.16 102.22 270.96" style="fill:#455a64"></polygon><polygon points="102.22 270.96 102.22 359.34 99.09 357.53 99.09 269.16 102.22 270.96" style="fill:#37474f"></polygon><polygon points="105.34 294.53 178.48 252.3 178.48 248.95 105.34 291.17 105.34 294.53" style="fill:#455a64"></polygon><polygon points="105.34 287.63 175.35 247.14 178.48 248.95 105.34 291.17 105.34 287.63" style="fill:#37474f"></polygon><polygon points="322.96 310.44 322.96 398.81 326.09 397.01 326.09 308.63 322.96 310.44" style="fill:#455a64"></polygon><polygon points="322.96 310.44 322.96 398.81 319.84 397.01 319.84 308.63 322.96 310.44" style="fill:#37474f"></polygon><polygon points="246.7 354.49 246.7 442.86 249.82 441.05 249.82 352.68 246.7 354.49" style="fill:#455a64"></polygon><polygon points="246.7 354.49 246.7 442.86 243.57 441.05 243.57 352.68 246.7 354.49" style="fill:#37474f"></polygon><polygon points="249.82 378.05 322.96 335.83 322.96 332.47 249.82 374.69 249.82 378.05" style="fill:#455a64"></polygon><polygon points="249.82 371.15 319.84 330.67 322.96 332.47 249.82 374.69 249.82 371.15" style="fill:#37474f"></polygon><g style="opacity:0.2"><polygon points="322.96 310.44 322.96 398.81 326.09 397.01 326.09 308.63 322.96 310.44" style="fill:#fff"></polygon><polygon points="322.96 310.44 322.96 398.81 319.84 397.01 319.84 308.63 322.96 310.44" style="fill:#fff"></polygon><polygon points="246.7 354.49 246.7 442.86 249.82 441.05 249.82 352.68 246.7 354.49" style="fill:#fff"></polygon><polygon points="246.7 354.49 246.7 442.86 243.57 441.05 243.57 352.68 246.7 354.49" style="fill:#fff"></polygon><polygon points="249.82 378.05 322.96 335.83 322.96 332.47 249.82 374.69 249.82 378.05" style="fill:#fff"></polygon><polygon points="249.82 371.15 319.84 330.67 322.96 332.47 249.82 374.69 249.82 371.15" style="fill:#fff"></polygon></g><g style="opacity:0.2"><polygon points="102.22 270.96 102.22 359.34 105.34 357.53 105.34 269.16 102.22 270.96" style="fill:#fff"></polygon><polygon points="102.22 270.96 102.22 359.34 99.09 357.53 99.09 269.16 102.22 270.96" style="fill:#fff"></polygon><polygon points="105.34 294.53 178.48 252.3 178.48 248.95 105.34 291.17 105.34 294.53" style="fill:#fff"></polygon><polygon points="105.34 287.63 175.35 247.14 178.48 248.95 105.34 291.17 105.34 287.63" style="fill:#fff"></polygon></g><polygon points="246.7 345.95 99.09 260.88 178.47 215.03 326.09 300.1 246.7 345.95" style="fill:#2158E8"></polygon><polygon points="246.7 354.49 99.09 269.16 99.09 260.88 246.7 345.95 246.7 354.49" style="fill:#2158E8"></polygon><polygon points="246.7 345.94 326.09 300.09 326.09 308.63 246.7 354.49 246.7 345.94" style="fill:#2158E8"></polygon><polygon points="246.7 345.95 99.09 260.88 178.47 215.03 326.09 300.1 246.7 345.95" style="fill:#fff;opacity:0.30000000000000004"></polygon><polygon points="246.7 345.94 326.09 300.09 326.09 308.63 246.7 354.49 246.7 345.94" style="fill:#fff;opacity:0.1"></polygon><polygon points="246.7 354.49 99.09 269.16 99.09 260.88 246.7 345.95 246.7 354.49" style="fill:#fff;opacity:0.2"></polygon><polygon points="178.47 215.03 326.08 300.1 326.09 300.09 326.09 308.63 246.7 354.49 99.09 269.16 99.09 260.88 178.47 215.03" style="opacity:0.2"></polygon><polygon points="185.88 235.27 174.04 261.15 143.14 256.36 154.98 230.48 185.88 235.27" style="fill:#e6e6e6"></polygon><polygon points="197.48 240.28 170.73 262.1 144.65 251.35 171.4 229.54 197.48 240.28" style="fill:#f0f0f0"></polygon><polygon points="202.96 232.99 218.99 249.04 178.97 262.4 162.93 246.36 202.96 232.99" style="fill:#fff"></polygon><path d="M179.13,276.71l32.39-18.83a7.33,7.33,0,0,1,6.64,0l53.44,30.86a2.41,2.41,0,0,1,1.38,1.82h0v2.06h0a1.5,1.5,0,0,1,0,.42.09.09,0,0,1,0,0,1.92,1.92,0,0,1-.23.45l0,0a3.25,3.25,0,0,1-.4.44l0,0a4.22,4.22,0,0,1-.6.43l-32.39,18.82a6.41,6.41,0,0,1-.92.41l-.36.11-.47.11a5.4,5.4,0,0,1-.58.1l-.14,0c-.26,0-.52,0-.79.05h-.13c-.26,0-.52,0-.78-.05H235c-.25,0-.5-.08-.75-.13l-.14,0-.65-.2-.12,0a5.17,5.17,0,0,1-.71-.34l-53.44-30.85a5,5,0,0,1-.61-.43l-.15-.17a2,2,0,0,1-.28-.31,1.28,1.28,0,0,1-.11-.2,2.1,2.1,0,0,1-.15-.3,2.07,2.07,0,0,1,0-.22,1.54,1.54,0,0,1-.05-.31v-1.89A2.33,2.33,0,0,1,179.13,276.71Z" style="fill:#455a64"></path><path d="M273,290.56a1.67,1.67,0,0,1-.06.59.06.06,0,0,1,0,0,1.6,1.6,0,0,1-.23.45s0,0,0,.05a2.81,2.81,0,0,1-.4.45l0,0a3.52,3.52,0,0,1-.6.42l-32.39,18.82a4.77,4.77,0,0,1-.92.41l-.36.11a4.05,4.05,0,0,1-.47.12l-.58.1-.14,0c-.26,0-.52,0-.79,0h-.13c-.26,0-.52,0-.78,0l-.12,0a6.54,6.54,0,0,1-.75-.13l-.14,0a4.88,4.88,0,0,1-.65-.2l-.12,0a5.17,5.17,0,0,1-.71-.34l-53.44-30.85a4.12,4.12,0,0,1-.61-.43c-.06-.05-.1-.11-.15-.16a3.73,3.73,0,0,1-.28-.31c0-.07-.07-.14-.11-.2a2.89,2.89,0,0,1-.15-.31,1.7,1.7,0,0,1,0-.22,1.57,1.57,0,0,1-.05-.3v1.89a1.54,1.54,0,0,0,.05.31,2.07,2.07,0,0,0,0,.22,2.1,2.1,0,0,0,.15.3,1.28,1.28,0,0,0,.11.2,2,2,0,0,0,.28.31l.15.17a5,5,0,0,0,.61.43l53.44,30.85a5.17,5.17,0,0,0,.71.34l.12,0,.65.2.14,0c.25.05.5.1.75.13h.12c.26,0,.52,0,.78.05H236c.27,0,.53,0,.79-.05l.14,0a5.4,5.4,0,0,0,.58-.1l.47-.11.36-.11a6.41,6.41,0,0,0,.92-.41l32.39-18.82a4.22,4.22,0,0,0,.6-.43l0,0a3.25,3.25,0,0,0,.4-.44l0,0a1.92,1.92,0,0,0,.23-.45.09.09,0,0,0,0,0,1.5,1.5,0,0,0,0-.42h0v-2.06Z" style="opacity:0.30000000000000004"></path><path d="M182.29,278.63l51.91,30,.21.1.11,0a2.76,2.76,0,0,0,.41.12l.28.06.2,0,.51,0h0l.53,0,.34-.06.42-.11a3,3,0,0,0,.36-.15l16.7-9.71-53.62-31Z" style="fill:#37474f"></path><path d="M236,309h0Z" style="fill:#263238"></path><path d="M231.68,270.38l-9.77,5.75a1,1,0,0,0,0,1.71l14.6,8.43a1.63,1.63,0,0,0,1.64,0l9.76-5.74a1,1,0,0,0,0-1.71l-14.61-8.43A1.64,1.64,0,0,0,231.68,270.38Z" style="fill:#37474f"></path><path d="M170.4,239h0l1.28-.64h0a1.58,1.58,0,0,1,1.43.09l53.81,31.28a6.54,6.54,0,0,1,3.15,4.61l5.53,35.18a1.59,1.59,0,0,1-.9,1.7h0l-1.24.61h0a1.58,1.58,0,0,1-1.38-.12l-53.81-31.28a6.47,6.47,0,0,1-3.15-4.61l-5.54-35.17A1.61,1.61,0,0,1,170.4,239Z" style="fill:#455a64"></path><path d="M199.75,271.16a11.93,11.93,0,0,1,5.34,7.7c.35,2.74-1.47,3.76-4.07,2.25a11.86,11.86,0,0,1-5.34-7.69C195.33,270.68,197.15,269.67,199.75,271.16Z" style="fill:#fff"></path><path d="M234.51,310,229,274.86a6.55,6.55,0,0,0-3.16-4.61L172,239a1.57,1.57,0,0,0-1.61,0h0l1.28-.64h0a1.58,1.58,0,0,1,1.43.09l53.81,31.28a6.54,6.54,0,0,1,3.15,4.61l5.53,35.18a1.59,1.59,0,0,1-.9,1.7h0l-1.24.61h0A1.62,1.62,0,0,0,234.51,310Z" style="opacity:0.30000000000000004"></path><path d="M316.89,196.65l-20.53,55-33.77,13.11a11.76,11.76,0,0,1-5.44.85L248.08,264a6.07,6.07,0,0,0-3.67.86l-6.26,3.79a6.49,6.49,0,0,0-1.66,1.43l-3.07,3.63a2.3,2.3,0,0,0,.42,3.35l1.93,1.38a6.86,6.86,0,0,0,7.08.54l4.84-2.44,2.23.53a22.62,22.62,0,0,0,14.55-1.38h0l36.63-7.4A16.29,16.29,0,0,0,313,258.06s17.5-41.54,13.37-50.94C324.57,203.06,316.89,196.65,316.89,196.65Z" style="fill:#ffa8a7"></path><path d="M316.89,196.65,295.7,251,261.94,263.9c6.29,3.52,6.62,11.39,6,12.32l35.75-7.48A13.93,13.93,0,0,0,313.81,260l14.35-38a19.73,19.73,0,0,0-11.27-25.34Z" style="fill:#2158E8"></path><path d="M316.89,196.65,295.7,251,261.94,263.9c6.29,3.52,6.62,11.39,6,12.32l35.75-7.48A13.93,13.93,0,0,0,313.81,260l14.35-38a19.73,19.73,0,0,0-11.27-25.34Z" style="fill:#fff;opacity:0.4"></path><path d="M275.82,266.72a13.54,13.54,0,0,0-4.71-6.33l-9.17,3.51c6.29,3.52,6.62,11.39,6,12.32l8.21-1.72A13.48,13.48,0,0,0,275.82,266.72Z" style="fill:#fff;opacity:0.4"></path><path d="M295.7,251c6.22.09,10.55,2.78,11.21,4.75-1.07-9.32-10.06-7.67-10.06-7.67Z" style="opacity:0.2"></path><polygon points="260.43 123.19 259.16 123.22 268.86 119.95 270.12 119.91 260.43 123.19" style="fill:#1e272b"></polygon><path d="M259.58,124.49a.64.64,0,0,1-.1-.24A.64.64,0,0,0,259.58,124.49Z" style="fill:none"></path><path d="M253.6,98.32h0a.79.79,0,0,1,.06-.22h0A.79.79,0,0,0,253.6,98.32Z" style="fill:none"></path><path d="M253.66,98.09l0,0,0,0Z" style="fill:none"></path><path d="M259.92,124.75l-.12,0Z" style="fill:none"></path><path d="M259.62,124.54a.65.65,0,0,0,.11.12A.65.65,0,0,1,259.62,124.54Z" style="fill:none"></path><polygon points="264.57 95.67 264.57 95.67 264.57 95.67 264.57 95.67" style="fill:#1d262a"></polygon><polygon points="254.88 98.94 259.42 118.78 260.43 123.19 270.12 119.91 264.57 95.67 254.88 98.94" style="fill:#2158E8"></polygon><path d="M271.39,120.22,265.52,94.6a.58.58,0,0,0-.71-.5L254,97.75a.76.76,0,0,0-.19.12l0,0a.45.45,0,0,0-.1.13l0,0h0a.79.79,0,0,0-.06.22.13.13,0,0,1,0,.06,1.06,1.06,0,0,0,0,.25l5.87,25.62a.64.64,0,0,0,.1.24l0,.05a.65.65,0,0,0,.11.12l.07,0,.12,0,.08,0a.62.62,0,0,0,.19,0L271,121.1A.74.74,0,0,0,271.39,120.22Zm-6.82-24.55h0l5.55,24.24-9.69,3.28h0l-1-4.42-4.54-19.83h0l9.69-3.27Z" style="fill:#455a64"></path><path d="M259.8,124.7l-.07,0a.65.65,0,0,1-.11-.12l0-.05a.64.64,0,0,1-.1-.24l-5.87-25.62a1.06,1.06,0,0,1,0-.25.13.13,0,0,0,0-.06h0a.79.79,0,0,1,.06-.22h0l0,0a.45.45,0,0,1,.1-.13l0,0a.76.76,0,0,1,.19-.12l10.8-3.65.14,0-1.27,0a.31.31,0,0,0-.13,0l-10.81,3.65a.42.42,0,0,0-.18.11s0,0,0,0a.57.57,0,0,0-.12.18h0a.75.75,0,0,0,0,.16v.06a.13.13,0,0,0,0,.06.69.69,0,0,0,0,.25l5.86,25.62a.62.62,0,0,0,.58.53l1.26,0H260l-.08,0Z" style="fill:#37474f"></path></g><g id="freepik--speech-bubbles--inject-13"><path d="M160.94,145.42l-31.6,18.14a6.22,6.22,0,0,0-3.1,5.35v27.24a6.1,6.1,0,0,0,9.32,5l5.49-3.14.49.81s.06,0,.09.07h0l.06,0h0c.9.6,2.49,1.45,2.85,1.63v0a.34.34,0,0,0,.42-.21l2-5.73h0l20.17-11.53a6.15,6.15,0,0,0,3.11-5.35V150.44C170.26,146,163.71,143.84,160.94,145.42Z" style="fill:#2158E8"></path><path d="M134.83,167.3Z" style="fill:none"></path><path d="M141.54,198.84s.06,0,.09.07h0l.06,0h0c.9.6,2.49,1.45,2.85,1.63v0a.31.31,0,0,1-.2-.14l-2-3.17.39-.22h0l-1.72,1Z" style="fill:#fff;opacity:0.2"></path><path d="M133.17,169.37a6.38,6.38,0,0,1,1.66-2.07h0a4.94,4.94,0,0,1,.75-.51l31.6-18.14a2.06,2.06,0,0,1,3.08,1.79c0-4.45-6.55-6.6-9.32-5l-31.6,18.14a6.12,6.12,0,0,0-2.3,2.33Z" style="fill:#fff;opacity:0.4"></path><path d="M132.48,199.38V172.14a5.84,5.84,0,0,1,.05-.73,6.31,6.31,0,0,1,.64-2L127,165.89a6.14,6.14,0,0,0-.8,3v27.24a6.1,6.1,0,0,0,9.32,5A2.06,2.06,0,0,1,132.48,199.38Z" style="fill:#fff;opacity:0.2"></path><polygon points="144.87 183.33 144.89 190.79 138.96 194.22 138.94 186.76 144.87 183.33" style="fill:#fff"></polygon><polygon points="154.37 172.37 154.4 185.3 148.48 188.72 148.45 175.79 154.37 172.37" style="fill:#fff"></polygon><path d="M162.35,155.73c.19-.11.34-.11.42,0a.5.5,0,0,1,.07.48l-1.28,4.62a1,1,0,0,1-.44.61l-.17.06c-.24,0-.37-.21-.27-.55l.74-2.7-6.81,9a.83.83,0,0,1-.26.24.37.37,0,0,1-.24.06l-1.82-.25-5.44,7.51a.79.79,0,0,1-.27.25.33.33,0,0,1-.26.06l-1.47-.29-4.92,7.15a1.09,1.09,0,0,1-.29.28.33.33,0,0,1-.38,0,.71.71,0,0,1,.09-.82l5.2-7.55a1,1,0,0,1,.29-.27.39.39,0,0,1,.27-.06l1.47.3,5.43-7.49a1,1,0,0,1,.27-.26.39.39,0,0,1,.25-.06l1.82.25,6.27-8.27-2.26,1.51c-.27.16-.48.06-.51-.21a1,1,0,0,1,.44-.84Z" style="fill:#fff"></path><polygon points="163.88 163.85 163.93 179.8 158 183.23 157.95 167.28 163.88 163.85" style="fill:#fff"></polygon><path d="M201.65,65.7,170,83.84a6.28,6.28,0,0,0-3.1,5.35v23a6.1,6.1,0,0,0,9.32,5l5.49-3.14.5.8s.05,0,.08.08h0l.06,0h0c.91.6,2.5,1.45,2.85,1.63v0a.34.34,0,0,0,.42-.21l2-5.73h0l20.17-11.53A6.17,6.17,0,0,0,211,93.79V70.72C211,66.27,204.42,64.12,201.65,65.7Z" style="fill:#2158E8"></path><path d="M175.54,87.58h0Z" style="fill:none"></path><path d="M182.25,114.86s.05,0,.08.08h0l.06,0h0c.91.6,2.5,1.45,2.85,1.63v0a.31.31,0,0,1-.2-.14l-2-3.17.39-.22h0l-1.73,1Z" style="fill:#fff;opacity:0.2"></path><path d="M173.88,89.65a6.35,6.35,0,0,1,1.65-2.07h0a4.94,4.94,0,0,1,.75-.51l31.6-18.13A2.05,2.05,0,0,1,211,70.72c0-4.45-6.55-6.6-9.32-5L170,83.84a6,6,0,0,0-2.29,2.33Z" style="fill:#fff;opacity:0.4"></path><path d="M173.19,115.41v-23a5.85,5.85,0,0,1,0-.73,6.58,6.58,0,0,1,.65-2l-6.13-3.48a6,6,0,0,0-.81,3v23a6.1,6.1,0,0,0,9.32,5A2.05,2.05,0,0,1,173.19,115.41Z" style="fill:#fff;opacity:0.2"></path><path d="M182.9,95.63c1.55-.89,2.81-.17,2.81,1.61a6.17,6.17,0,0,1-2.79,4.86c-1.56.89-2.82.17-2.82-1.61A6.18,6.18,0,0,1,182.9,95.63Z" style="fill:#fff"></path><path d="M193.31,89.62c1.55-.89,2.82-.17,2.82,1.61a6.19,6.19,0,0,1-2.8,4.86c-1.56.89-2.82.17-2.83-1.61A6.21,6.21,0,0,1,193.31,89.62Z" style="fill:#fff"></path><path d="M203.73,83.61c1.54-.89,2.81-.17,2.81,1.61a6.16,6.16,0,0,1-2.8,4.85c-1.55.9-2.81.18-2.82-1.61A6.17,6.17,0,0,1,203.73,83.61Z" style="fill:#fff"></path><path d="M322.31,75.34l31.36,18a6.16,6.16,0,0,1,3.07,5.31v22.82a6,6,0,0,1-9.25,5l-5.44-3.12-.5.8a.27.27,0,0,1-.08.07h0l-.06,0h0c-.9.6-2.47,1.44-2.83,1.63v0a.34.34,0,0,1-.42-.2l-2-5.69h0l-20-11.44a6.13,6.13,0,0,1-3.08-5.31V80.32C313.06,75.9,319.56,73.77,322.31,75.34Z" style="fill:#2158E8"></path><path d="M348.22,97.05Z" style="fill:none"></path><path d="M341.55,124.12a.27.27,0,0,1-.08.07h0l-.06,0h0c-.9.6-2.47,1.44-2.83,1.63v0a.31.31,0,0,0,.2-.14l1.94-3.14-.38-.22h0l1.71,1Z" style="fill:#fff;opacity:0.2"></path><path d="M349.86,99.1a6.38,6.38,0,0,0-1.64-2h0a5.5,5.5,0,0,0-.75-.51l-31.36-18a2,2,0,0,0-3.05,1.77c0-4.42,6.5-6.55,9.25-5l31.36,18A6.24,6.24,0,0,1,356,95.64Z" style="fill:#fff;opacity:0.4"></path><path d="M350.55,124.67V101.85a5.84,5.84,0,0,0-.05-.73,6.44,6.44,0,0,0-.64-2L356,95.64a6.22,6.22,0,0,1,.79,3v22.82a6,6,0,0,1-9.25,5A2,2,0,0,0,350.55,124.67Z" style="fill:#fff;opacity:0.2"></path><path d="M326.62,89.65a3.85,3.85,0,0,0-3.81-.38c-2.11,1.19-2.12,5.11,0,8.73l1.22,2.13,7.58,13.13,7.63-4.35,1.23-.71c2.12-1.19,2.13-5.11,0-8.73a11,11,0,0,0-3.8-4,3.83,3.83,0,0,0-3.8-.38l-1.24.69-1.23-2.11A11,11,0,0,0,326.62,89.65Z" style="fill:#fff"></path></g></svg>
